<svg xmlns="http://www.w3.org/2000/svg" xmlns:xlink="http://www.w3.org/1999/xlink" preserveAspectRatio="xMidYMid meet" version="1.0" viewBox="0.0 0.0 126.0 126.0" zoomAndPan="magnify" style="fill: rgb(0, 0, 0);" original_string_length="27182" width="614.4000091552736px" height="614.4000091552736px"><g><g><g><g><g><path d="M120.84,54.1c-3.12-4.84-18.3-6.31-18.3-6.31c-0.06-0.45-0.22-0.89-0.47-1.28 c-1.17-1.85-2.64-3.04-4.42-3.56v-5.64c0.04-0.04,0.07-0.09,0.11-0.13c0.81-0.98,1.43-2.08,1.83-3.25c0,0,4.52,0.13,5.71-3.83 c0.65-2.16-0.26-3.99-1.22-5.2c2.72-3.61,3.16-9.24,1.38-13.97c-2.07-5.53-7.86-8.75-11.54-7.46c0,0-2.24-2.47-6.74-2.47 c-4.94,0-10.87,4.42-12.71,9.61c-1.43,4.04-1.46,10.52,0.96,14.28c-0.96,1.21-1.87,3.04-1.22,5.21 c1.18,3.96,5.71,3.83,5.71,3.83c0.36,1.08,0.9,2.1,1.62,3c0.1,0.12,0.21,0.25,0.32,0.38v5.64c-1.78,0.52-3.26,1.71-4.43,3.56 c-0.24,0.39-0.4,0.83-0.46,1.28c0,0-15.18,1.47-18.3,6.31C55.55,58.95,53,92.76,53,92.76c-3.64-1.82-6.77-2.82-6.77-2.82 l-0.67-2.6c-0.26-1.02-0.94-1.88-1.88-2.35c-0.21-0.1-0.43-0.21-0.68-0.32v-5.39c0,0,5.25-2.23,7.89-7.58 C53.53,66.34,53,50.34,53,50.34c2.19-1.97,3.82-4.69,4.61-8l-3.68,0.13c2.93-2.26,3.94-6.6,3.07-10.05 c-5.21,2.01-9.92,2.46-15.29,1.48c2.82-1.02,4.51-2.99,5.16-5.8c0,0-21.27,0.66-28.27,11.56c-2.91,4.53-3.25,10.43-2.04,16.41 c0,0-3.56,3.32-1.91,7.98c1.66,4.65,6.18,3.87,6.18,3.87c0.97,1.88,2.04,3.66,3.17,5.29v10.26c-1.57,0.51-2.37,1-2.37,1v5.47 c0,0-12.45,3.51-16.54,10.09C1,106.61,1,125,1,125h47.86h19.09c0,0-0.72-11.98-3.22-19.98l5.39-7.71v9.49 c0,2.12,1.72,3.84,3.84,3.84c-1.68,0-3.03,1.35-3.03,3.03V125h3.76h16.5h21.44v-11.51c0-1.4-1.13-2.53-2.52-2.53 c1.39,0,2.52-1.13,2.52-2.52V107c2.17,0.36,4.81,0.23,7.35-1.37C125,102.45,125,86.91,125,86.91S123.96,58.95,120.84,54.1z" style="fill: rgb(119, 151, 162);"/></g><g><path d="M85.59,50.16c1.46,2.07,3.04,4.23,4.16,6.19c-0.89,1.56-1.48,3-1.48,4.18v6.62 c-7.02-1.49-7.12-13.56-7.12-13.56C82.43,52.08,83.91,50.92,85.59,50.16z" style="fill: rgb(255, 219, 162);"/></g><g><path d="M98.36,53.59c0,0-0.12,13.71-8.61,13.71c-0.52,0-1.02-0.05-1.48-0.15v-6.62 c0-1.18,0.59-2.62,1.48-4.18c1.12-1.97,2.71-4.13,4.17-6.19C95.6,50.92,97.07,52.08,98.36,53.59z M92.29,63.09 c0.83,0,1.5-0.67,1.5-1.5c0-0.83-0.67-1.5-1.5-1.5c-0.82,0-1.5,0.67-1.5,1.5C90.79,62.42,91.47,63.09,92.29,63.09z" style="fill: rgb(251, 226, 174);"/></g><g><path d="M77.91,68.91l0.36,1.48v0.01c-1.06-0.49-2.38-0.88-3.62-1l-1.85-7.6 c-0.17-0.73,0.28-1.47,1.01-1.65l0.54-0.13c0.73-0.18,1.47,0.27,1.65,1.01L77.91,68.91z" style="fill: rgb(101, 95, 104);"/></g><g><path d="M81.86,42.95c0,1.75,1.75,4.4,3.73,7.21c-1.68,0.76-3.16,1.92-4.44,3.43 c-0.73,0.87-2.14,0.59-2.55-0.47l-1.45-3.76c-0.2-0.51-0.26-1.05-0.18-1.57c0.06-0.45,0.22-0.89,0.46-1.28 C78.6,44.66,80.08,43.47,81.86,42.95z" style="fill: rgb(77, 114, 122);"/></g><g><path d="M100.91,53.12c-0.41,1.06-1.82,1.34-2.55,0.47c-1.29-1.51-2.76-2.67-4.44-3.43 c1.98-2.82,3.73-5.46,3.73-7.21c1.78,0.52,3.25,1.71,4.42,3.56c0.25,0.39,0.41,0.83,0.47,1.28c0.07,0.52,0.01,1.06-0.18,1.57 L100.91,53.12z" style="fill: rgb(77, 114, 122);"/></g><g><path d="M101.81,76.54H82.82c-0.69-1.39-1.66-2.29-2.95-2.64c0,0,0.92-0.9,0.39-2.02 c-0.23-0.49-0.99-1.03-1.99-1.48v-0.01l-0.36-1.48c0.4-0.94,1.34-1.61,2.44-1.61h9.4h9.41c1.46,0,2.65,1.18,2.65,2.64V76.54z" style="fill: rgb(222, 224, 221);"/></g><g><path d="M105.98,110.96l-0.47,2.95h-6.86c0.77-0.64,1.65-1.15,2.6-1.51c1.96-0.74,3.61-2.13,4.67-3.94 l0.64-1.09L105.98,110.96z" style="fill: rgb(255, 219, 162);"/></g><g><path d="M101.9,87.54c-0.84-0.47-1.89-0.25-2.48,0.51l-0.84,1.08L87.6,85.58 c-0.19-0.06-0.38-0.09-0.56-0.09c-0.76,0-1.47,0.49-1.71,1.25c-0.31,0.95,0.21,1.96,1.16,2.27c-0.19-0.06-0.38-0.09-0.56-0.09 c-0.76,0-1.47,0.49-1.71,1.25c-0.26,0.78,0.05,1.61,0.7,2.04v0.01c-1.08,0.13-2.03,0.96-2.22,2.15l-1.16,7.44 c-0.19,1.15-0.03,2.34,0.45,3.4c0.35,0.79,0.53,1.63,0.53,2.47c0,0.92-0.21,1.84-0.62,2.68l-1.75,3.55H77.2l-0.52-3.27 l-2.97-18.48l-1.15-7.22l-1.35-8.4h11.61h18.99h9.69l-1.45,9.08c-0.59-0.86-1.25-1.63-1.79-2.21c-0.38-0.41-0.9-0.63-1.43-0.63 c-0.3,0-0.61,0.07-0.89,0.21c-1,0.5-1.37,1.73-0.83,2.7l0.98,1.78c-0.81-0.18-1.68,0.18-2.11,0.94l-1.07,1.91 c0.52-0.93,0.19-2.11-0.75-2.63L101.9,87.54z" style="fill: rgb(255, 219, 162);"/></g><g><path d="M80.15,113.91L74.69,125h-3.76v-11.33c0-1.68,1.35-3.03,3.03-3.03h2.71h0.01l0.52,3.27H80.15z" style="fill: rgb(182, 182, 183);"/></g><g><path d="M112.63,113.49V125H91.19l5.52-8.87c0.53-0.85,1.18-1.6,1.94-2.22h6.86l0.47-2.95h4.13 C111.5,110.96,112.63,112.09,112.63,113.49z" style="fill: rgb(182, 182, 183);"/></g><g><path d="M63.24,80c0.52-0.55,1.34-0.5,1.81-0.02c0.16,0.14,0.28,0.35,0.34,0.59 c0.3,1.28,0.92,2.74,2.2,3.53c2.1,1.29,4.96,0.84,4.96,0.84h0.01l1.15,7.22l-3.59,5.15l-5.39,7.71 c-0.61-1.99-1.35-3.74-2.21-4.99c-2.11-3.06-6.05-5.54-9.52-7.27L63.24,80z" style="fill: rgb(147, 178, 184);"/></g><g><path d="M46.23,89.94h-24.6v-5.47c0,0,0.8-0.49,2.37-1c1.91-0.61,4.96-1.26,9.1-1.08 c4.46,0.19,7.86,1.36,9.9,2.28c0.25,0.11,0.47,0.22,0.68,0.32c0.94,0.47,1.62,1.33,1.88,2.35L46.23,89.94z" style="fill: rgb(251, 226, 174);"/></g><g><path d="M48.86,125H1c0,0,0-18.39,4.09-24.97s16.54-10.09,16.54-10.09h24.6c0,0,3.13,1,6.77,2.82 c3.47,1.73,7.41,4.21,9.52,7.27c0.86,1.25,1.6,3,2.21,4.99c2.5,8,3.22,19.98,3.22,19.98H48.86z" style="fill: rgb(82, 167, 215);"/></g><g><path d="M110.05,85.62c0.73,1.07,1.34,2.27,1.45,3.4c0.09,0.87-0.04,1.71-0.27,2.46 c-0.54,1.73-1.61,3.01-1.79,3.2c0.49-0.92,0.16-2.09-0.77-2.61l-0.03-0.01c-0.93-0.53-2.1-0.19-2.64,0.73l1.39-2.47 c0.52-0.93,0.19-2.11-0.74-2.63l-0.03-0.02c-0.17-0.1-0.35-0.16-0.53-0.2l-0.98-1.78c-0.54-0.97-0.17-2.2,0.83-2.7 c0.28-0.14,0.59-0.21,0.89-0.21c0.53,0,1.05,0.22,1.43,0.63C108.8,83.99,109.46,84.76,110.05,85.62z" style="fill: rgb(254, 196, 185);"/></g><g><path d="M98.58,89.13l-7.44,9.61c-0.87,1.12-2.67,0.64-2.86-0.76l-0.49-3.57 c-0.08-0.54-0.32-1.04-0.69-1.42c-0.21-0.22-0.45-0.4-0.73-0.53c-0.37-0.18-0.75-0.26-1.13-0.26c-0.11,0-0.21,0.01-0.32,0.02 v-0.01c-0.65-0.43-0.96-1.26-0.7-2.04c0.24-0.76,0.95-1.25,1.71-1.25c0.18,0,0.37,0.03,0.56,0.09 c-0.95-0.31-1.47-1.32-1.16-2.27c0.24-0.76,0.95-1.25,1.71-1.25c0.18,0,0.37,0.03,0.56,0.09L98.58,89.13z" style="fill: rgb(254, 196, 185);"/></g><g><path d="M16.56,56.07c0.82,4.05,2.35,8.13,4.27,11.85c0,0-4.52,0.78-6.18-3.87 C13,59.39,16.56,56.07,16.56,56.07z" style="fill: rgb(254, 196, 185);"/></g><g><path d="M45.18,68.41c-1.43,0.07-2.64-1.05-2.68-2.48l-0.16-7.24c-0.04-1.6,1.25-2.91,2.84-2.91 c0.04,0,0.07,0,0.11,0c1.59,0.06,2.83,1.42,2.73,3.01l-0.44,7.23c-0.04,0.64-0.31,1.22-0.74,1.65S45.82,68.38,45.18,68.41z" style="fill: rgb(254, 196, 185);"/></g><g><path d="M78.12,27.33l1.59,5.92c0.06,0.23,0.13,0.46,0.21,0.68c0,0-4.53,0.13-5.71-3.83 c-0.65-2.17,0.26-4,1.22-5.21C76.12,25.97,77.01,26.82,78.12,27.33z" style="fill: rgb(254, 196, 185);"/></g><g><path d="M97.65,37.31v5.68c-0.03,1.75-1.76,4.37-3.73,7.17c-1.46,2.06-3.05,4.22-4.17,6.19 c-1.12-1.96-2.7-4.12-4.16-6.19c-1.98-2.81-3.73-5.46-3.73-7.21v-5.64c1.59,1.88,4.27,4.14,7.89,4.14 C93.39,41.45,96.06,39.19,97.65,37.31z" style="fill: rgb(255, 215, 210);"/></g><g><path d="M104.08,24.9c0.96,1.21,1.87,3.04,1.22,5.2c-1.19,3.96-5.71,3.83-5.71,3.83 c0.08-0.22,0.15-0.46,0.21-0.69l1.58-5.91h0.01C102.45,26.7,103.35,25.87,104.08,24.9z" style="fill: rgb(254, 196, 185);"/></g><g><path d="M71.21,76.54l1.35,8.4h-0.01c0,0-2.86,0.45-4.96-0.84c-1.28-0.79-1.9-2.25-2.2-3.53 c-0.06-0.24-0.18-0.45-0.34-0.59l0.01-0.01c0,0,2.32-4.58,4.61-7.7v-0.01c1.07-1.45,2.13-2.57,2.94-2.77 c0.6-0.15,1.3-0.16,2.04-0.09c1.24,0.12,2.56,0.51,3.62,1c1,0.45,1.76,0.99,1.99,1.48c0.53,1.12-0.39,2.02-0.39,2.02 c1.29,0.35,2.26,1.25,2.95,2.64H71.21z" style="fill: rgb(255, 215, 210);"/></g><g><path d="M108.67,92.07c0.93,0.52,1.26,1.69,0.77,2.61c-0.01,0.02-0.02,0.03-0.02,0.03l-1.24,2.21 c0.52-0.94,1.7-1.27,2.64-0.75c0.63,0.36,0.99,1.01,0.99,1.69c0,0.33-0.09,0.67-0.27,0.98l-3.74,6.4l-1.24,2.12v0.01 l-0.64,1.09c-1.06,1.81-2.71,3.2-4.67,3.94c-0.95,0.36-1.83,0.87-2.6,1.51c-0.76,0.62-1.41,1.37-1.94,2.22L91.19,125h-16.5 l5.46-11.09l1.75-3.55c0.41-0.84,0.62-1.76,0.62-2.68c0-0.84-0.18-1.68-0.53-2.47c-0.48-1.06-0.64-2.25-0.45-3.4l1.16-7.44 c0.19-1.19,1.14-2.02,2.22-2.15c0.11-0.01,0.21-0.02,0.32-0.02c0.38,0,0.76,0.08,1.13,0.26c0.28,0.13,0.52,0.31,0.73,0.53 c0.37,0.38,0.61,0.88,0.69,1.42l0.49,3.57c0.19,1.4,1.99,1.88,2.86,0.76l7.44-9.61l0.84-1.08c0.59-0.76,1.64-0.98,2.48-0.51 l0.26,0.15c0.94,0.52,1.27,1.7,0.75,2.63l1.07-1.91c0.43-0.76,1.3-1.12,2.11-0.94c0.18,0.04,0.36,0.1,0.53,0.2l0.03,0.02 c0.93,0.52,1.26,1.7,0.74,2.63L106,92.79c0.54-0.92,1.71-1.26,2.64-0.73L108.67,92.07z" style="fill: rgb(255, 215, 210);"/></g><g><path d="M42.5,65.93c0.04,1.43,1.25,2.55,2.68,2.48c0.64-0.03,1.23-0.31,1.66-0.74s0.7-1.01,0.74-1.65 l0.44-7.23l1.18-4.35c0.32-1.16,1.09-2.13,2.1-2.79c0.6-0.39,1.17-0.82,1.7-1.31c0,0,0.53,16-2.11,21.36 C48.25,77.05,43,79.28,43,79.28v5.39c-2.04-0.92-5.44-2.09-9.9-2.28c-4.14-0.18-7.19,0.47-9.1,1.08V73.21 c1.28,1.85,2.63,3.51,4,4.91c2.95-1.32,5.1-3.26,6.58-5.72c0.25,1.61,0.76,3.16,1.6,4.65C39.28,74.49,42.5,70.59,42.5,65.93z" style="fill: rgb(255, 215, 210);"/></g><g><path d="M101.72,21.39c0.48,1.25,0.55,2.62,0.21,3.91l-0.54,2.03h-0.01l-1.58,5.91 c-0.06,0.23-0.13,0.47-0.21,0.69c-0.4,1.17-1.02,2.27-1.83,3.25c-0.04,0.04-0.07,0.09-0.11,0.13c-1.59,1.88-4.26,4.14-7.9,4.14 c-3.62,0-6.3-2.26-7.89-4.14c-0.11-0.13-0.22-0.26-0.32-0.38c-0.72-0.9-1.26-1.92-1.62-3c-0.08-0.22-0.15-0.45-0.21-0.68 l-1.59-5.92l-0.46-1.74c-0.34-1.26,0.35-2.56,1.57-3.03c6.01-2.34,10.34-6.39,13-12.14c-0.41,3.83-1.6,7.42-3.95,10.63 c4.35-1,7.61-3.59,10.06-7.36c-0.24,3.17-1.12,5.84-3.08,7.67c2.41,0.41,4.48,0.18,6.08-0.96L101.72,21.39z" style="fill: rgb(255, 215, 210);"/></g><g><path d="M53.93,42.47l3.68-0.13c-0.79,3.31-2.42,6.03-4.61,8c-0.53,0.49-1.1,0.92-1.7,1.31 c-1.01,0.66-1.78,1.63-2.1,2.79l-1.18,4.35c0.1-1.59-1.14-2.95-2.73-3.01c-0.04,0-0.07,0-0.11,0c-1.59,0-2.88,1.31-2.84,2.91 l0.16,7.24c0,4.66-3.22,8.56-6.32,11.12c-0.84-1.49-1.35-3.04-1.6-4.65c-1.48,2.46-3.63,4.4-6.58,5.72 c-1.37-1.4-2.72-3.06-4-4.91c-1.13-1.63-2.2-3.41-3.17-5.29c-1.92-3.72-3.45-7.8-4.27-11.85c-1.21-5.98-0.87-11.88,2.04-16.41 c7-10.9,28.27-11.56,28.27-11.56c-0.65,2.81-2.34,4.78-5.16,5.8c5.37,0.98,10.08,0.53,15.29-1.48 C57.87,35.87,56.86,40.21,53.93,42.47z" style="fill: rgb(101, 95, 104);"/></g><g><path d="M101.93,25.3c0.34-1.29,0.27-2.66-0.21-3.91l-0.38-0.99c-1.6,1.14-3.67,1.37-6.08,0.96 c1.96-1.83,2.84-4.5,3.08-7.67c-2.45,3.77-5.71,6.36-10.06,7.36c2.35-3.21,3.54-6.8,3.95-10.63c-2.66,5.75-6.99,9.8-13,12.14 c-1.22,0.47-1.91,1.77-1.57,3.03l0.46,1.74c-1.11-0.51-2-1.36-2.69-2.44c-2.42-3.76-2.39-10.24-0.96-14.28 C76.31,5.42,82.24,1,87.18,1c4.5,0,6.74,2.47,6.74,2.47c3.68-1.29,9.47,1.93,11.54,7.46c1.78,4.73,1.34,10.36-1.38,13.97 c-0.73,0.97-1.63,1.8-2.69,2.43L101.93,25.3z" style="fill: rgb(96, 69, 51);"/></g><g><circle cx="92.29" cy="61.59" r="1.5" style="fill: rgb(101, 95, 104);"/></g><g><path d="M97.65,37.31v5.68c-1.57,0.59-3.27,0.92-5.05,0.92c-4.28,0-8.13-1.88-10.74-4.87v-1.73 c1.59,1.88,4.27,4.14,7.89,4.14C93.39,41.45,96.06,39.19,97.65,37.31z" style="fill: rgb(247, 182, 173);"/></g></g><g><g><path d="M69.67,72.27c0,0-1.458-6.436-3.52-9.979c-0.334-0.573-1.094-0.727-1.646-0.358l0,0 c-0.405,0.271-0.593,0.768-0.48,1.242c1.358,5.7,1.747,11.677,1.039,16.794C66.795,76.696,68.057,74.497,69.67,72.27z" style="fill: rgb(77, 114, 122);"/></g><g><path d="M9.22,124.98v-15.259c0-0.514-0.417-0.931-0.931-0.931h0c-0.496,0-0.904,0.389-0.93,0.884 c-0.357,6.82-0.877,13.3-3.529,15.347L9.22,124.98z" style="fill: rgb(47, 132, 185);"/></g><g><path d="M48.86,125l-1.028-14.881c-0.05-0.719,0.52-1.329,1.241-1.329h0c0.645,0,1.18,0.495,1.238,1.137 c0.559,6.188,1.559,11.873,4.753,15.052L48.86,125z" style="fill: rgb(47, 132, 185);"/></g><g><path d="M119.398,85.635c-2.878-0.287-5.437,0.25-7.628,1.589c-0.509,0.311-0.649,0.99-0.29,1.467l0,0 c0.302,0.401,0.863,0.53,1.29,0.265c1.834-1.14,3.947-1.576,6.431-1.331c0.572,0.045,1.039-0.349,1.094-0.897 S119.947,85.688,119.398,85.635z" style="fill: rgb(77, 114, 122);"/></g><g><path d="M120.709,92.261c-2.364-1.591-5.258-2.229-8.608-1.898c-0.56,0.055-0.951,0.588-0.866,1.145l0,0 c0.081,0.535,0.572,0.892,1.111,0.841c2.858-0.272,5.293,0.254,7.246,1.57c0.172,0.116,0.365,0.171,0.558,0.171 c0.321,0,0.638-0.154,0.83-0.441C121.288,93.19,121.167,92.568,120.709,92.261z" style="fill: rgb(77, 114, 122);"/></g><g><path d="M111.5,76.54l2.909-12.421c0.13-0.555-0.239-1.103-0.802-1.193 c-0.009-0.001-0.018-0.003-0.026-0.004c-0.434-0.069-0.917,0.134-1.043,0.554c-1.049,3.503-4.642,12.378-6.046,13.058 L111.5,76.54z" style="fill: rgb(77, 114, 122);"/></g></g></g></g><g style="fill: rgb(58, 50, 43);"><circle cx="92.294" cy="61.591" r="1.499" style="fill: inherit;"/><path d="M121.681,53.563c-2.998-4.649-15.018-6.314-18.336-6.69c-0.106-0.313-0.248-0.615-0.428-0.898 c-1.142-1.802-2.576-3.055-4.269-3.733v-4.578c0.677-0.844,1.221-1.768,1.63-2.759c1.957-0.171,4.996-1.24,5.979-4.518 c0.552-1.846,0.22-3.73-0.948-5.491c2.609-4.006,2.789-9.782,1.091-14.32c-2.039-5.448-7.823-9.263-12.22-8.222 C93.236,1.562,90.905,0,87.182,0c-5.431,0-11.684,4.708-13.654,10.281c-1.453,4.109-1.495,10.425,0.732,14.527 c-1.216,1.785-1.572,3.7-1.01,5.577c0.982,3.277,4.018,4.347,5.976,4.518c0.394,0.964,0.902,1.857,1.538,2.654 c0.031,0.038,0.064,0.078,0.096,0.116v4.567c-1.693,0.678-3.127,1.931-4.27,3.734c-0.179,0.284-0.321,0.585-0.427,0.898 c-3.32,0.376-15.339,2.042-18.335,6.69c-2.897,4.495-5.142,30.57-5.705,37.655c-2.258-1.048-4.165-1.743-5.058-2.051l-0.53-2.078 c-0.335-1.311-1.214-2.402-2.411-2.995c-0.035-0.017-0.083-0.038-0.119-0.056v-4.132c1.527-0.784,5.527-3.184,7.785-7.768 c2.5-5.071,2.295-18.696,2.228-21.382c2.215-2.117,3.78-4.896,4.569-8.184c0.072-0.304-0.001-0.624-0.198-0.866 c-0.197-0.241-0.523-0.391-0.809-0.366l-1.245,0.043c1.777-2.497,2.45-5.973,1.641-9.209c-0.069-0.278-0.255-0.514-0.509-0.646 c-0.256-0.132-0.556-0.148-0.82-0.045c-4.046,1.56-7.794,2.15-11.809,1.824c1.515-1.216,2.521-2.882,3.004-4.981 c0.069-0.302-0.005-0.619-0.202-0.858s-0.482-0.354-0.804-0.365c-0.89,0.028-21.875,0.806-29.072,12.017 c-2.939,4.578-3.361,10.53-2.233,16.585c-0.945,1.058-3.367,4.328-1.818,8.678c1.308,3.669,4.332,4.604,6.345,4.604 c0.081,0,0.153-0.006,0.231-0.009c0.844,1.59,1.758,3.106,2.718,4.522v9.258c-1.193,0.438-1.834,0.819-1.899,0.859 c-0.297,0.182-0.479,0.505-0.479,0.854v4.729C17.832,90.077,7.946,93.533,4.239,99.5C0.048,106.244,0,124.238,0,125.001 c0,0.553,0.447,1,1,1s1-0.447,1-1c0-0.181,0.045-18.181,3.938-24.446c3.626-5.838,14.562-9.235,15.834-9.613h24.297 c1.346,0.452,11.805,4.106,15.624,9.653c4.103,5.959,5.244,24.281,5.255,24.466c0.031,0.531,0.472,0.94,0.997,0.94 c0.021,0,0.04-0.001,0.061-0.002c0.552-0.033,0.972-0.507,0.938-1.058c-0.036-0.603-0.734-11.783-3.116-19.748l3.292-4.713v6.321 c0,1.635,0.821,3.076,2.067,3.952c-0.773,0.735-1.261,1.765-1.261,2.912v11.335c0,0.553,0.447,1,1,1s1-0.447,1-1v-11.335 c0-1.119,0.912-2.029,2.032-2.029h1.864l0.39,2.434c0.078,0.485,0.496,0.842,0.987,0.842h1.339l-4.75,9.647 c-0.243,0.495-0.04,1.095,0.456,1.339c0.142,0.069,0.292,0.103,0.44,0.103c0.369,0,0.725-0.205,0.898-0.559l7.21-14.644 c0.93-1.888,0.97-4.072,0.109-5.995c-0.399-0.893-0.531-1.876-0.38-2.843l1.164-7.438c0.077-0.497,0.378-0.915,0.824-1.147 c0.448-0.232,0.965-0.241,1.417-0.02c0.472,0.229,0.795,0.676,0.867,1.194l0.492,3.563c0.146,1.058,0.879,1.886,1.911,2.161 c1.037,0.274,2.081-0.079,2.734-0.924l8.278-10.691c0.281-0.367,0.799-0.471,1.2-0.245l0.264,0.148 c0.219,0.122,0.376,0.321,0.444,0.563c0.067,0.24,0.038,0.493-0.085,0.711l-5.202,9.276c-0.271,0.481-0.099,1.091,0.383,1.361 c0.481,0.269,1.09,0.1,1.361-0.383l5.201-9.274c0.001-0.001,0.002-0.002,0.003-0.003c0.001-0.003,0.002-0.005,0.003-0.008 l1.067-1.902c0.254-0.45,0.826-0.612,1.309-0.343c0.219,0.122,0.376,0.322,0.444,0.563c0.067,0.24,0.037,0.493-0.085,0.711 l-6.002,10.703c-0.271,0.481-0.099,1.092,0.383,1.361c0.155,0.087,0.322,0.128,0.488,0.128c0.35,0,0.689-0.184,0.873-0.511 l4.613-8.226c0-0.001,0.001-0.001,0.002-0.002c0.253-0.452,0.829-0.611,1.308-0.343c0.219,0.122,0.377,0.322,0.444,0.563 c0.068,0.241,0.038,0.493-0.084,0.711l-1.238,2.207c0,0.001-0.001,0.001-0.002,0.002c0,0,0,0.001,0,0.001l-3.426,6.109 c-0.271,0.481-0.099,1.091,0.383,1.361c0.155,0.087,0.322,0.128,0.488,0.128c0.35,0,0.689-0.184,0.873-0.511l3.428-6.111 c0.253-0.45,0.827-0.609,1.277-0.359c0.221,0.124,0.379,0.327,0.446,0.571c0.066,0.244,0.032,0.5-0.095,0.718l-4.964,8.494 c-0.001,0.001-0.001,0.002-0.002,0.003l-0.659,1.128c-0.938,1.605-2.414,2.853-4.156,3.51c-1.071,0.404-2.063,0.993-2.936,1.724 c-0.007,0.007-0.015,0.013-0.022,0.02c-0.808,0.681-1.514,1.484-2.075,2.386l-5.521,8.873c-0.292,0.469-0.148,1.086,0.32,1.377 c0.164,0.103,0.347,0.151,0.527,0.151c0.334,0,0.66-0.167,0.85-0.472l5.521-8.873c0.408-0.655,0.923-1.232,1.496-1.744h6.453 c0.491,0,0.909-0.356,0.987-0.842l0.338-2.106h3.27c0.843,0,1.528,0.685,1.528,1.526v11.511c0,0.553,0.447,1,1,1s1-0.447,1-1 V113.49c0-0.991-0.415-1.885-1.076-2.526c0.661-0.641,1.076-1.535,1.076-2.526v-0.299c0.316,0.025,0.636,0.042,0.964,0.042 c1.869,0,3.918-0.436,5.92-1.704c5.329-3.376,5.479-17.919,5.478-19.604C125.889,83.982,124.857,58.493,121.681,53.563z M19.446,40.199c5.607-8.735,21.229-10.628,26.03-11.008c-0.746,1.802-2.1,3.041-4.107,3.771 c-0.424,0.154-0.692,0.573-0.654,1.023s0.373,0.819,0.817,0.9c5.181,0.941,9.764,0.598,14.702-1.122 c0.319,2.735-0.514,6.06-2.912,7.91c-0.344,0.266-0.477,0.723-0.329,1.131c0.146,0.408,0.543,0.7,0.975,0.66l2.313-0.079 c-1.028,3.174-2.922,5.725-5.526,7.428c-1.258,0.824-2.151,2.021-2.518,3.367l-0.447,1.642c-0.674-0.63-1.531-1.008-2.465-1.044 c-1.024-0.043-2.093,0.363-2.846,1.104c-0.752,0.741-1.169,1.771-1.145,2.825l0.17,7.228c-0.004,4.092-2.811,7.483-5.005,9.511 c-0.445-1.012-0.755-2.083-0.926-3.199c-0.063-0.416-0.381-0.747-0.794-0.829c-0.411-0.086-0.833,0.104-1.05,0.463 c-1.322,2.188-3.127,3.835-5.505,5.021c-2.365-2.533-4.643-5.827-6.53-9.472c-0.011-0.019-0.018-0.04-0.03-0.059 C17.059,58.445,14.813,47.415,19.446,40.199z M43.335,58.662c-0.012-0.513,0.183-0.993,0.548-1.354 c0.368-0.361,0.857-0.544,1.367-0.531c0.501,0.02,0.962,0.234,1.298,0.605c0.335,0.37,0.504,0.849,0.474,1.347l-0.436,7.233 c-0.047,0.783-0.675,1.404-1.459,1.444c-0.415,0.03-0.822-0.124-1.131-0.41c-0.308-0.285-0.481-0.673-0.491-1.092L43.335,58.662z M15.597,63.712c-0.808-2.27-0.188-4.167,0.512-5.398c0.753,2.936,1.839,5.851,3.147,8.605 C18.063,66.732,16.424,66.036,15.597,63.712z M25.005,76.222c0.747,0.934,1.51,1.805,2.28,2.592 c0.192,0.196,0.451,0.301,0.715,0.301c0.138,0,0.276-0.028,0.407-0.087c2.294-1.023,4.205-2.447,5.707-4.247 c0.303,0.96,0.703,1.884,1.198,2.761c0.146,0.258,0.397,0.438,0.689,0.492c0.292,0.053,0.59-0.024,0.818-0.213 c2.041-1.686,5.207-4.86,6.298-8.987c0.571,0.373,1.232,0.576,1.924,0.576c0.063,0,0.125-0.002,0.188-0.005 c1.804-0.093,3.245-1.521,3.353-3.322l0.429-7.129l1.156-4.249c0.238-0.875,0.836-1.663,1.683-2.218 c0.066-0.043,0.126-0.095,0.191-0.139c0.04,4.397-0.082,14.919-2.046,18.904c-1.625,3.299-4.345,5.345-5.991,6.35v-2.382 c0-0.553-0.447-1-1-1s-1,0.447-1,1v7.964c-2.109-0.798-5.129-1.633-8.861-1.793c-3.438-0.149-6.156,0.252-8.137,0.753V76.222z M22.627,88.941v-3.862c1.227-0.572,4.765-1.93,10.429-1.689c4.889,0.21,8.477,1.654,10.18,2.497 c0.674,0.333,1.17,0.952,1.36,1.697l0.347,1.357H22.627z M101.227,47.044c0.371,0.587,0.446,1.317,0.2,1.956l-1.451,3.762 c-0.102,0.263-0.344,0.323-0.415,0.335c-0.099,0.02-0.294,0.022-0.442-0.153c-0.015-0.018-0.032-0.033-0.047-0.051 c-0.002-0.002-0.003-0.003-0.005-0.005c-1.1-1.284-2.338-2.312-3.684-3.084c1.42-2.049,2.565-3.894,3.028-5.476 C99.496,44.884,100.425,45.779,101.227,47.044z M89.753,66.3c-0.167,0-0.325-0.014-0.484-0.026l-0.001-5.747 c0-2.1,2.524-5.65,4.751-8.783c0.07-0.099,0.137-0.194,0.207-0.292c1.129,0.623,2.173,1.465,3.117,2.518 C97.242,56.094,96.414,66.3,89.753,66.3z M100.806,75.54h-17.41c-0.567-0.939-1.264-1.661-2.1-2.131 c0.178-0.562,0.204-1.241-0.136-1.961c-0.296-0.628-1.051-1.23-2.023-1.735l-0.159-0.654c0.3-0.462,0.803-0.76,1.368-0.76h18.813 c0.908,0,1.646,0.737,1.646,1.643V75.54z M71.392,84.015c-0.897,0.004-2.223-0.119-3.275-0.766 c-1.044-0.643-1.53-1.936-1.754-2.907c-0.034-0.148-0.097-0.284-0.159-0.419c1.31-2.527,2.883-5.156,4.228-7.005 c0.003-0.004,0.005-0.007,0.008-0.011c0.999-1.372,1.87-2.314,2.405-2.444c2.289-0.55,6.152,1.116,6.507,1.839 c0.207,0.439-0.122,0.818-0.179,0.878c-0.256,0.25-0.359,0.617-0.271,0.964s0.355,0.619,0.7,0.715 c0.464,0.13,0.874,0.361,1.242,0.682h-9.639c-0.293,0-0.571,0.128-0.761,0.352c-0.19,0.223-0.273,0.518-0.227,0.807L71.392,84.015 z M73.776,61.563c-0.031-0.127,0.014-0.226,0.042-0.273c0.03-0.049,0.099-0.135,0.228-0.166l0.538-0.13 c0.13-0.032,0.229,0.014,0.277,0.043s0.134,0.098,0.165,0.226l1.838,7.566c-0.462-0.13-0.933-0.237-1.4-0.314L73.776,61.563z M87.451,21.602c0.229,0.348,0.653,0.513,1.059,0.423c3.093-0.714,5.793-2.234,8.067-4.533c-0.466,1.284-1.13,2.322-2,3.136 c-0.276,0.26-0.383,0.653-0.274,1.017c0.108,0.364,0.414,0.635,0.788,0.699c2.246,0.388,4.169,0.22,5.734-0.496 c0.372,1.031,0.419,2.133,0.135,3.193l-2.126,7.938c-0.353,1.317-0.972,2.515-1.839,3.56c-1.483,1.785-3.943,3.914-7.242,3.914 c-3.405,0-5.919-2.253-7.428-4.143c-0.76-0.952-1.314-2.068-1.649-3.319l-2.052-7.658c-0.202-0.757,0.215-1.55,0.97-1.844 c4.184-1.628,7.614-4.084,10.252-7.333c-0.605,1.538-1.394,2.967-2.369,4.306C87.231,20.799,87.221,21.253,87.451,21.602z M82.858,39.737c1.742,1.487,4.042,2.715,6.895,2.715c2.861,0,5.166-1.245,6.895-2.718v3.216c0,0.001,0.001,0.002,0.001,0.003 c-0.002,1.642-2.263,4.824-4.259,7.631c-0.91,1.281-1.83,2.577-2.636,3.839c-0.808-1.264-1.731-2.566-2.635-3.837 c-1.996-2.81-4.26-5.994-4.26-7.636V39.737z M85.488,51.744c1.104,1.554,2.229,3.149,3.113,4.629 c-0.806,1.508-1.334,2.924-1.334,4.154l0.001,5.213c-4.395-2.162-5.019-9.945-5.104-11.77c0.944-1.053,1.989-1.895,3.117-2.518 C85.351,51.55,85.418,51.645,85.488,51.744z M104.341,29.812c-0.585,1.953-2.202,2.692-3.383,2.966l1.294-4.832 c0.632-0.408,1.208-0.873,1.721-1.396C104.54,27.633,104.666,28.726,104.341,29.812z M75.412,10.948 C77.099,6.182,82.599,2,87.182,2c3.955,0,5.916,2.06,5.993,2.143c0.27,0.298,0.69,0.404,1.072,0.271 c3.085-1.081,8.361,1.739,10.279,6.862c1.619,4.324,1.347,9.893-1.452,13.299c0.152-1.195,0.018-2.404-0.42-3.547c0,0,0,0,0-0.001 l-0.38-0.987c-0.111-0.288-0.35-0.509-0.646-0.599c-0.297-0.089-0.617-0.036-0.868,0.144c-0.928,0.66-2.104,0.961-3.501,0.966 c1.182-1.735,1.866-3.975,2.08-6.786c0.034-0.456-0.244-0.877-0.677-1.023c-0.429-0.144-0.908,0.019-1.158,0.401 c-1.891,2.904-4.161,4.917-6.895,6.1c1.409-2.592,2.27-5.469,2.615-8.721c0.052-0.486-0.256-0.939-0.728-1.069 c-0.475-0.13-0.97,0.101-1.174,0.544c-2.538,5.487-6.729,9.399-12.455,11.629c-1.368,0.532-2.226,1.805-2.279,3.186 c-0.098-0.127-0.191-0.258-0.282-0.394c-0.003-0.005-0.006-0.009-0.009-0.014C74.031,20.982,74.061,14.768,75.412,10.948z M75.165,29.813c-0.321-1.074-0.204-2.155,0.347-3.226c0.511,0.562,1.094,1.033,1.752,1.399l1.28,4.778 C77.364,32.488,75.748,31.756,75.165,29.813z M78.279,47.044c0.801-1.265,1.731-2.16,2.818-2.716 c0.463,1.582,1.607,3.427,3.027,5.476c-1.345,0.773-2.583,1.8-3.684,3.084c-0.002,0.002-0.003,0.003-0.005,0.005 c-0.015,0.018-0.032,0.033-0.047,0.05c-0.146,0.173-0.339,0.174-0.441,0.153c-0.071-0.012-0.313-0.071-0.415-0.335l-1.452-3.763 C77.833,48.362,77.908,47.631,78.279,47.044z M59.508,54.646c2.163-3.357,11.806-5.169,16.49-5.74 c0.045,0.276,0.113,0.549,0.216,0.813l1.451,3.762c0.325,0.843,1.053,1.436,1.946,1.588c0.145,0.024,0.287,0.036,0.429,0.036 c0.064,0,0.125-0.015,0.188-0.02c0.219,2.669,1.065,8.228,4.304,11.215h-4.185c-0.69,0-1.344,0.199-1.906,0.544l-1.471-6.053 c-0.148-0.614-0.528-1.134-1.068-1.463c-0.54-0.328-1.177-0.429-1.789-0.277l-0.537,0.13c-0.615,0.148-1.136,0.528-1.465,1.068 c-0.328,0.54-0.427,1.175-0.277,1.788l1.542,6.347c-0.354,0.02-0.693,0.061-1,0.135c-0.622,0.151-1.316,0.675-2.031,1.405 c-0.638-3.457-1.995-6.568-4.073-9.261c-0.337-0.436-0.963-0.517-1.403-0.181c-0.437,0.338-0.518,0.966-0.181,1.403 c2.216,2.871,3.535,6.274,3.941,10.114c-1.617,2.228-3.141,4.977-4.023,6.662c-0.76-0.15-1.546,0.082-2.141,0.707l-8.202,10.224 C55.176,78.696,57.304,58.064,59.508,54.646z M63.34,99.46c-2.002-2.908-5.498-5.283-8.787-7.033l9.412-11.739 c0.101-0.102,0.218-0.091,0.274-0.074c0.095,0.026,0.154,0.086,0.175,0.178c0.444,1.928,1.362,3.366,2.655,4.161 c1.586,0.977,3.501,1.093,4.643,1.057l0.949,5.914l-7.629,10.92C64.529,101.533,63.969,100.374,63.34,99.46z M73.959,109.637 c-1.565,0-2.839-1.271-2.839-2.835v-9.184l1.996-2.857l2.386,14.875H73.959z M90.352,98.126c-0.223,0.289-0.521,0.245-0.637,0.216 c-0.118-0.031-0.396-0.144-0.446-0.503l-0.448-3.241l2.227,0.719c0.103,0.033,0.206,0.049,0.308,0.049 c0.423,0,0.814-0.27,0.951-0.692c0.17-0.525-0.118-1.09-0.644-1.259l-4.057-1.31c-0.24-0.214-0.504-0.403-0.801-0.548 c-0.483-0.235-0.998-0.345-1.514-0.353c-0.153-0.205-0.206-0.477-0.124-0.729c0.137-0.42,0.588-0.652,1.014-0.516 c0.001,0,0.002,0,0.003,0l6.101,1.97c0.103,0.033,0.206,0.049,0.308,0.049c0.423,0,0.814-0.27,0.951-0.692 c0.17-0.525-0.118-1.09-0.644-1.259l-6.106-1.973c-0.204-0.065-0.37-0.207-0.468-0.397s-0.115-0.408-0.05-0.611 c0.137-0.421,0.591-0.654,1.013-0.517l9.633,3.11L90.352,98.126z M98.63,87.435l-0.406,0.524l-10.32-3.332 c-1.468-0.474-3.055,0.333-3.531,1.805c-0.206,0.637-0.165,1.309,0.088,1.922c-0.545,0.337-0.984,0.85-1.196,1.506 c-0.207,0.639-0.163,1.312,0.078,1.907c-0.872,0.549-1.469,1.414-1.632,2.446l-1.164,7.439c-0.211,1.351-0.027,2.723,0.531,3.969 c0.616,1.377,0.588,2.941-0.079,4.294l-1.476,2.997h-1.471L72.379,77.54h37.953l-0.909,5.663c-0.145-0.164-0.29-0.329-0.43-0.48 c-0.893-0.959-2.337-1.218-3.508-0.625c-0.727,0.367-1.257,0.998-1.495,1.774c-0.238,0.777-0.151,1.596,0.243,2.307l0.277,0.498 c-0.408,0.175-0.78,0.435-1.078,0.785c-0.22-0.254-0.477-0.477-0.779-0.645l-0.264-0.148 C101.134,85.965,99.514,86.294,98.63,87.435z M108.23,90.872l0.034-0.06c0.384-0.684,0.479-1.477,0.266-2.231 c-0.213-0.756-0.707-1.383-1.423-1.783c-0.103-0.057-0.21-0.093-0.316-0.137l-0.809-1.454c-0.128-0.23-0.156-0.496-0.079-0.747 c0.077-0.253,0.25-0.457,0.485-0.576c0.387-0.195,0.847-0.114,1.142,0.202c1.766,1.9,2.853,3.735,2.98,5.033 c0.099,1.011-0.162,1.977-0.514,2.786c-0.235-0.285-0.523-0.531-0.865-0.723C108.842,91.022,108.538,90.929,108.23,90.872z M102.565,112.912c0.861-0.432,1.653-0.987,2.356-1.64l-0.263,1.64H102.565z M111.634,108.438c0,0.842-0.686,1.526-1.528,1.526 h-2.949l0.362-2.259l0.653-1.117c0.772,0.385,1.984,0.903,3.462,1.243V108.438z M119.447,104.787 c-4.017,2.546-8.446,0.931-10.259,0.062l3.217-5.505c0.4-0.687,0.506-1.486,0.298-2.252c-0.209-0.767-0.706-1.402-1.399-1.791 c-0.268-0.15-0.55-0.238-0.836-0.298c0.38-0.488,1.024-1.414,1.492-2.606c3.025-0.354,5.595,0.148,7.635,1.519 c0.171,0.115,0.365,0.17,0.557,0.17c0.322,0,0.638-0.155,0.831-0.442c0.308-0.458,0.187-1.08-0.272-1.388 c-2.271-1.526-5.033-2.172-8.226-1.929c0.043-0.385,0.053-0.781,0.027-1.187c1.896-1.269,4.089-1.771,6.694-1.513 c0.545,0.05,1.04-0.347,1.094-0.896c0.055-0.55-0.347-1.039-0.896-1.094c-2.777-0.275-5.255,0.222-7.396,1.463 c-0.243-0.581-0.556-1.152-0.909-1.702l1.39-8.664l3.135-13.416c0.126-0.538-0.208-1.075-0.746-1.201 c-0.536-0.126-1.076,0.209-1.201,0.746l-2.963,12.679h-7.906v-5.598c0-2.009-1.636-3.643-3.646-3.643h-4.185 c3.239-2.987,4.085-8.546,4.304-11.215c0.063,0.005,0.124,0.02,0.188,0.02c0.142,0,0.285-0.012,0.429-0.036 c0.894-0.152,1.621-0.745,1.946-1.588l1.451-3.762c0.102-0.264,0.17-0.537,0.215-0.813c4.684,0.571,14.328,2.383,16.492,5.74 c2.438,3.782,3.712,24.599,3.997,32.264C123.997,91.08,123.182,102.421,119.447,104.787z" style="fill: inherit;"/><path d="M86.238,71.393h7.029c0.553,0,1-0.447,1-1s-0.447-1-1-1h-7.029c-0.553,0-1,0.447-1,1 S85.686,71.393,86.238,71.393z" style="fill: inherit;"/><path d="M94.669,72.643h-9.831c-0.553,0-1,0.447-1,1s0.447,1,1,1h9.831c0.553,0,1-0.447,1-1 S95.222,72.643,94.669,72.643z" style="fill: inherit;"/><path d="M9.223,107.792c-0.553,0-1,0.447-1,1v16.192c0,0.553,0.447,1,1,1s1-0.447,1-1v-16.192 C10.223,108.239,9.775,107.792,9.223,107.792z" style="fill: inherit;"/><path d="M47.674,107.794c-0.551,0.038-0.967,0.516-0.929,1.067l1.119,16.209 c0.037,0.527,0.477,0.931,0.997,0.931c0.023,0,0.047-0.001,0.07-0.002c0.551-0.038,0.967-0.516,0.929-1.067l-1.119-16.209 C48.702,108.171,48.219,107.765,47.674,107.794z" style="fill: inherit;"/></g></g></svg>