<!DOCTYPE svg PUBLIC "-//W3C//DTD SVG 1.1//EN" "http://www.w3.org/Graphics/SVG/1.1/DTD/svg11.dtd">
<!-- Uploaded to: SVG Repo, www.svgrepo.com, Transformed by: SVG Repo Mixer Tools -->
<svg width="195px" height="195px" viewBox="-4.32 -4.32 32.64 32.64" id="meteor-icon-kit__regular-microphone" fill="none" xmlns="http://www.w3.org/2000/svg" stroke="#C9D1D9" stroke-width="0.21600000000000003">
<g id="SVGRepo_bgCarrier" stroke-width="0"/>
<g id="SVGRepo_tracerCarrier" stroke-linecap="round" stroke-linejoin="round"/>
<g id="SVGRepo_iconCarrier">
<path fill-rule="evenodd" clip-rule="evenodd" d="M8 0C5.23858 0 3 2.23858 3 5V13C3 15.7614 5.23858 18 8 18C10.7614 18 13 15.7614 13 13V5C13 2.23858 10.7614 0 8 0zM5 5C5 3.34315 6.3431 2 8 2C9.6569 2 11 3.34315 11 5V13C11 14.6569 9.6569 16 8 16C6.3431 16 5 14.6569 5 13V5z" fill="#C9D1D9"/>
<path d="M2 11.5882C2 11.0359 1.55228 10.5882 1 10.5882C0.44772 10.5882 0 11.0359 0 11.5882V13.647C0 17.4729 3.12354 20.4939 7 20.9425V22H5C4.44772 22 4 22.4477 4 23C4 23.5523 4.44772 24 5 24H11C11.5523 24 12 23.5523 12 23C12 22.4477 11.5523 22 11 22H9V20.9425C12.8765 20.4939 16 17.4729 16 13.647V11.5882C16 11.0359 15.5523 10.5882 15 10.5882C14.4477 10.5882 14 11.0359 14 11.5882V13.647C14 16.5143 11.4072 19 8 19C4.59282 19 2 16.5143 2 13.647V11.5882z" fill="#C9D1D9"/>
</g>
</svg>